<!-- Generator: Adobe Illustrator 21.1.0, SVG Export Plug-In  -->
<svg version="1.1"
	 xmlns="http://www.w3.org/2000/svg" xmlns:xlink="http://www.w3.org/1999/xlink" xmlns:a="http://ns.adobe.com/AdobeSVGViewerExtensions/3.0/"
	 x="0px" y="0px" width="39.2px" height="43.3px" viewBox="0 0 39.2 43.3" style="enable-background:new 0 0 39.2 43.3;"
	 xml:space="preserve">
<style type="text/css">
	.st0{fill:#BABF33;}
	.st1{fill:#799B3D;}
</style>
<defs>
</defs>
<path class="st0" d="M16.2,20.8c0,0-4.3-5.2-4.4-11c-0.1-5.7,4-9.8,4-9.8s4.3,5.2,4.4,11C20.4,16.7,16.2,20.8,16.2,20.8"/>
<path class="st1" d="M23.2,12.9c0,1.5,1.2,2.7,2.7,2.7s2.7-1.2,2.7-2.7c0-1.5-1.2-2.7-2.7-2.7S23.2,11.3,23.2,12.9 M39.2,14.2
	c0,0,0.5,11.6-5.3,19.5c-5.8,7.9-15.6,9.2-15.6,9.2s-0.5-11.6,5.3-19.5C29.4,15.5,39.2,14.2,39.2,14.2"/>
<path class="st0" d="M16,32.7L16,32.7C16,32.6,16,32.6,16,32.7c0-2.4-0.4-9.3-4.1-14.3c-4.4-6.1-12-7.1-12-7.1s-0.4,8.9,4,15
	c3.1,4.3,7.9,6.1,10.3,6.7v9.5c0,0.5,0.4,0.8,0.8,0.8S16,43,16,42.5v-9.6C16,32.9,16,32.8,16,32.7"/>
</svg>
